<svg width="256" height="256" viewBox="0 0 256 256" fill="none" xmlns="http://www.w3.org/2000/svg">
<g clip-path="url(#clip0)">
<path d="M241.871 256.001C249.673 256.001 256 249.675 256 241.872V14.129C256 6.325 249.673 0 241.871 0H14.129C6.324 0 0 6.325 0 14.129V241.872C0 249.675 6.324 256.001 14.129 256.001H241.871Z" fill="#BFBFBF"/>
<path d="M176.635 256.001V156.864H209.912L214.894 118.229H176.635V93.561C176.635 82.375 179.742 74.752 195.783 74.752L216.242 74.743V40.188C212.702 39.717 200.558 38.665 186.43 38.665C156.932 38.665 136.738 56.67 136.738 89.736V118.229H103.376V156.864H136.738V256.001H176.635Z" fill="#1E1E1E"/>
</g>
<defs>
<clipPath id="clip0">
<rect width="256" height="256" fill="white"/>
</clipPath>
</defs>
</svg>
